<svg xmlns="http://www.w3.org/2000/svg" version="1.1" xmlns:xlink="http://www.w3.org/1999/xlink" xmlns:svgjs="http://svgjs.dev/svgjs" width="1000" height="1000" viewBox="0 0 1000 1000"><rect width="1000" height="1000" fill="#000000"></rect><g transform="matrix(0.7,0,0,0.7,150,106.25)"><svg viewBox="0 0 320 360" data-background-color="#0f1bcf" preserveAspectRatio="xMidYMid meet" height="1125" width="1000" xmlns="http://www.w3.org/2000/svg" xmlns:xlink="http://www.w3.org/1999/xlink"><g id="tight-bounds" transform="matrix(1,0,0,1,0,0)"><svg viewBox="0 0 320 360" height="360" width="320"><g><svg></svg></g><g><svg viewBox="0 0 320 360" height="360" width="320"><g><path d="M160 340c88.258 0 160-71.742 160-160 0-88.258-71.742-160-160-160-88.258 0-160 71.742-160 160 0 88.258 71.742 160 160 160zM165.161 329.368v-10.323c72.671-2.684 131.2-61.213 133.884-133.884h10.323c-2.684 78.452-65.755 141.523-144.207 144.207zM165.161 30.632c78.452 2.684 141.523 65.755 144.207 144.207h-10.323c-2.684-72.671-61.213-131.2-133.884-133.884zM289.032 180c0 71.123-57.91 129.032-129.032 129.032-71.123 0-129.032-57.91-129.032-129.032 0-71.123 57.91-129.032 129.032-129.032 71.123 0 129.032 57.91 129.032 129.032zM154.839 30.632v10.323c-72.671 2.684-131.2 61.213-133.884 133.884h-10.323c2.684-78.452 65.755-141.523 144.207-144.207zM20.955 185.161c2.684 72.671 61.213 131.2 133.884 133.884v10.323c-78.452-2.684-141.523-65.755-144.207-144.207z" fill="#ffffff" fill-rule="nonzero" stroke="none" stroke-width="1" stroke-linecap="butt" stroke-linejoin="miter" stroke-miterlimit="10" stroke-dasharray="" stroke-dashoffset="0" font-family="none" font-weight="none" font-size="none" text-anchor="none" style="mix-blend-mode: normal" data-fill-palette-color="tertiary"></path></g><g transform="matrix(1,0,0,1,64,147.9553844713197)"><svg viewBox="0 0 192 64.08923105736062" height="64.08923105736062" width="192"><g><svg viewBox="0 0 192 64.08923105736062" height="64.08923105736062" width="192"><g><svg viewBox="0 0 192 64.08923105736062" height="64.08923105736062" width="192"><g><svg viewBox="0 0 192 64.08923105736062" height="64.08923105736062" width="192"><g id="textblocktransform"><svg viewBox="0 0 192 64.08923105736062" height="64.08923105736062" width="192" id="textblock"><g><svg viewBox="0 0 192 38.246502331778814" height="38.246502331778814" width="192"><g transform="matrix(1,0,0,1,0,0)"><svg width="192" viewBox="2.25 -33.75 225.13 44.85" height="38.246502331778814" data-palette-color="#ffffff"><path d="M11.65-27.6Q11.5-24.4 11.5-21.45L11.5-21.45Q11.5-18.4 11.9-12.5L11.9-12.5Q11.95-11.6 12.1-8.88 12.25-6.15 12.25-3.9L12.25-3.9Q12.75-3.95 13.33-4.05 13.9-4.15 14.2-4.15L14.2-4.15Q15.3-4.15 15.95-3.6 16.6-3.05 16.6-1.9L16.6-1.9Q16.6-1.15 16-0.75 15.4-0.35 13.93-0.18 12.45 0 9.65 0L9.65 0Q6.55 0 5-0.2 3.45-0.4 2.85-0.98 2.25-1.55 2.25-2.7L2.25-2.7Q2.25-3.55 2.8-3.85 3.35-4.15 4.35-4.15L4.35-4.15 5.4-4.1 7.05-4 6.8-9.9Q6.5-14.7 6.5-18.7L6.5-18.7Q6.5-20.85 6.65-24.6L6.65-24.6 6.75-27.35Q5.05-27.25 4.1-27.25L4.1-27.25Q3-27.25 2.63-27.65 2.25-28.05 2.25-29.3L2.25-29.3Q2.25-30.7 4.17-31.1 6.1-31.5 10.05-31.5L10.05-31.5Q13.1-31.5 14.63-31.3 16.15-31.1 16.15-30.4L16.15-30.4Q16.15-28.7 15.43-28.18 14.7-27.65 12.65-27.65L12.65-27.65 11.65-27.6ZM44.1-3.85Q44.35-3.75 44.9-3.6 45.45-3.45 45.7-3.3 45.95-3.15 45.95-2.85L45.95-2.85Q46-1.65 45.07-0.88 44.15-0.1 42.9-0.1L42.9-0.1Q40.95-0.1 39.85-1.15 38.75-2.2 38.25-4.35L38.25-4.35Q38.05-5.2 38.05-6.7L38.05-6.7Q38.05-7.55 38.15-9.45L38.15-9.45Q38.25-11.45 38.25-12.65L38.25-12.65Q38.25-14.4 37.27-15.73 36.3-17.05 34.55-17.05L34.55-17.05Q33.5-17.05 32.35-16.43 31.2-15.8 30.75-14.9L30.75-14.9Q30-13.45 29.7-11.75L29.7-11.75Q29.15-8.75 29.15-5.5L29.15-5.5Q29.15-3.95 29.2-3.1L29.2-3.1Q29.2-2.9 29.22-2.33 29.25-1.75 29.12-1.28 29-0.8 28.7-0.4L28.7-0.4Q28.45-0.15 27.92 0.03 27.4 0.2 26.95 0.2L26.95 0.2Q26.25 0.2 25.2-0.4 24.15-1 24-1.75L24-1.75 23.95-2.6Q23.95-3.05 24.05-3.65L24.05-3.65Q24.65-7.15 24.65-9.75L24.65-9.75Q24.65-10.9 24.6-11.55L24.6-11.55 24.55-13.9Q24.55-15.1 23.95-16.23 23.35-17.35 22.55-17.35L22.55-17.35Q22.3-17.35 21.85-17.18 21.4-17 21.1-17L21.1-17Q20.6-17 20.02-17.5 19.45-18 19.45-18.55L19.45-18.55Q19.45-19.6 20.15-20.25L20.15-20.25Q20.9-20.85 21.62-21.2 22.35-21.55 23.3-21.55L23.3-21.55Q24.1-21.55 24.6-21.4 25.1-21.25 25.95-20.75L25.95-20.75Q26.4-20.5 27-19.65 27.6-18.8 28-17.25L28-17.25Q29.3-19.65 31.22-20.63 33.15-21.6 36.15-21.6L36.15-21.6Q37.3-21.6 38.62-20.85 39.95-20.1 40.9-19.1L40.9-19.1Q41.8-18 42.4-16.38 43-14.75 43-13.45L43-13.45Q43-12.7 42.9-11L42.9-11Q42.75-9.65 42.75-8.15L42.75-8.15Q42.75-4.65 44.1-3.85L44.1-3.85ZM51.95-17.1L49.55-17.3Q48.85-17.4 48.42-17.9 48-18.4 48-19.1L48-19.1Q48-19.45 48.17-19.85 48.35-20.25 48.7-20.55L48.7-20.55Q49.35-21.2 52.2-21.2L52.2-21.2Q52.6-23.15 52.6-25.15L52.6-25.15Q52.6-25.9 52.55-26.45 52.5-27 52.5-27.3L52.5-27.3Q52.5-28.4 53.32-28.95 54.15-29.5 55.2-29.5L55.2-29.5Q56.5-29.5 56.97-28.85 57.45-28.2 57.45-26.45L57.45-26.45Q57.45-23.85 57-21.35L57-21.35Q57.8-21.35 59.2-21.45L59.2-21.45Q61.1-21.55 61.95-21.55L61.95-21.55Q62.8-21.55 63.42-21.13 64.05-20.7 64.05-19.95L64.05-19.95Q64.05-18 62.3-17.65L62.3-17.65Q60.45-17.2 56.55-17.1L56.55-17.1Q56.4-15.15 56.4-12.85L56.4-12.85Q56.4-9.25 56.85-6.95L56.85-6.95Q57.15-5.35 57.87-4.63 58.6-3.9 60.05-3.9L60.05-3.9Q60.9-3.9 61.8-4.35L61.8-4.35Q62.4-4.7 62.9-4.7L62.9-4.7Q63.59-4.7 63.92-4.25 64.25-3.8 64.25-3.05L64.25-3.05Q64.25-1.65 62.75-0.73 61.25 0.2 58.9 0.2L58.9 0.2Q57.45 0.2 55.97-0.5 54.5-1.2 53.5-2.25L53.5-2.25Q53.35-2.4 52.95-3.4 52.55-4.4 52.25-5.55L52.25-5.55Q51.75-7.9 51.75-12.15L51.75-12.15Q51.75-14 51.95-17.1L51.95-17.1ZM67.94-10.6Q67.94-12.5 68.64-14.43 69.34-16.35 70.49-17.95L70.49-17.95Q71.64-19.55 74.14-20.58 76.64-21.6 78.59-21.6L78.59-21.6Q80.59-21.6 82.67-21.05 84.74-20.5 85.54-19.35L85.54-19.35Q87.39-16.75 87.39-14.25L87.39-14.25Q87.39-12.9 86.82-11.95 86.24-11 85.19-9.9L85.19-9.9Q84.34-9 82.52-8.7 80.69-8.4 78.89-8.4L78.89-8.4Q77.74-8.4 76.09-8.63 74.44-8.85 72.89-9.2L72.89-9.2Q72.99-8.2 73.39-7.25 73.79-6.3 74.34-5.8L74.34-5.8Q75.34-4.85 76.42-4.6 77.49-4.35 79.19-4.35L79.19-4.35Q80.99-4.35 82.54-4.95L82.54-4.95Q83.79-5.4 84.59-5.4L84.59-5.4Q85.54-5.4 86.04-4.83 86.54-4.25 86.54-3.35L86.54-3.35Q86.54-2.1 85.09-1.3 83.64-0.5 81.77-0.13 79.89 0.25 78.74 0.25L78.74 0.25Q76.39 0.25 74.19-0.6 71.99-1.45 70.54-3L70.54-3Q69.34-4.4 68.64-6.38 67.94-8.35 67.94-10.6L67.94-10.6ZM78.84-17.35Q77.74-17.35 76.64-16.93 75.54-16.5 74.84-15.75L74.84-15.75Q73.94-14.8 73.62-14.23 73.29-13.65 73.19-12.65L73.19-12.65Q74.44-12.25 78.39-12.25L78.39-12.25Q80.54-12.25 81.72-12.9 82.89-13.55 82.89-14.6L82.89-14.6Q82.89-15.65 81.59-16.5 80.29-17.35 78.84-17.35L78.84-17.35ZM97.79-7.75Q97.79-5.85 98.37-4.83 98.94-3.8 99.84-3.8L99.84-3.8Q100.34-3.8 100.79-3.88 101.24-3.95 101.69-3.95L101.69-3.95Q102.19-3.95 102.57-3.45 102.94-2.95 102.94-2.35L102.94-2.35Q102.94-1.15 101.82-0.48 100.69 0.2 98.79 0.2L98.79 0.2Q97.44 0.2 96.07-0.63 94.69-1.45 93.79-3.23 92.89-5 92.89-7.65L92.89-7.65Q92.89-13.35 93.09-17.3L93.09-17.3Q93.34-22 93.34-29.15L93.34-29.15Q93.34-31.4 93.59-32.3L93.59-32.3Q93.89-33 94.57-33.38 95.24-33.75 95.99-33.75L95.99-33.75Q96.74-33.75 97.32-33.5 97.89-33.25 98.09-32.7L98.09-32.7Q98.29-32.1 98.37-31.53 98.44-30.95 98.44-29.9L98.44-29.9Q98.44-27.85 98.29-25.95L98.29-25.95Q98.19-23.65 98.19-22.6L98.19-22.6Q97.79-13.8 97.79-7.75L97.79-7.75ZM111.94-7.75Q111.94-5.85 112.51-4.83 113.09-3.8 113.99-3.8L113.99-3.8Q114.49-3.8 114.94-3.88 115.39-3.95 115.84-3.95L115.84-3.95Q116.34-3.95 116.71-3.45 117.09-2.95 117.09-2.35L117.09-2.35Q117.09-1.15 115.96-0.48 114.84 0.2 112.94 0.2L112.94 0.2Q111.59 0.2 110.21-0.63 108.84-1.45 107.94-3.23 107.04-5 107.04-7.65L107.04-7.65Q107.04-13.35 107.24-17.3L107.24-17.3Q107.49-22 107.49-29.15L107.49-29.15Q107.49-31.4 107.74-32.3L107.74-32.3Q108.04-33 108.71-33.38 109.39-33.75 110.14-33.75L110.14-33.75Q110.89-33.75 111.46-33.5 112.04-33.25 112.24-32.7L112.24-32.7Q112.44-32.1 112.51-31.53 112.59-30.95 112.59-29.9L112.59-29.9Q112.59-27.85 112.44-25.95L112.44-25.95Q112.34-23.65 112.34-22.6L112.34-22.6Q111.94-13.8 111.94-7.75L111.94-7.75ZM123.04-32.1Q124.79-31.95 126.09-31.18 127.39-30.4 127.39-28.85L127.39-28.85Q127.39-27.7 126.31-27.03 125.24-26.35 123.74-26.35L123.74-26.35Q122.29-26.35 121.74-27.1 121.19-27.85 121.19-28.65L121.19-28.65Q121.19-30.15 121.51-31.15 121.84-32.15 123.04-32.1L123.04-32.1ZM127.04-18.95L127.04-9.95 127.04-8.5Q127.04-6.55 127.16-4.83 127.29-3.1 127.49-1.35L127.49-1.35Q127.44-0.85 126.74-0.33 126.04 0.2 125.49 0.2L125.49 0.2Q124.54 0.2 123.56-0.18 122.59-0.55 122.39-1.1L122.39-1.1Q122.09-2.7 122.09-3.95L122.09-3.95Q122.09-8.05 121.84-13.15L121.84-13.15Q121.64-17.65 121.64-19.45L121.64-19.45Q121.64-20.35 122.54-21 123.44-21.65 124.44-21.65L124.44-21.65Q125.89-21.65 126.46-21 127.04-20.35 127.04-18.95L127.04-18.95ZM146.58-11.3Q144.63-11.3 143.31-11.43 141.98-11.55 139.83-11.85L139.83-11.85 139.78-6.6Q139.73-5.25 139.73-2.75L139.73-2.75Q139.73-1.45 139.01-0.73 138.28 0 137.38 0L137.38 0Q135.73 0 134.93-0.43 134.13-0.85 134.13-1.95L134.13-1.95Q134.13-3.4 134.38-6.05L134.38-6.05Q134.93-11.75 134.93-17.75L134.93-17.75Q134.93-23.35 134.58-28.3L134.58-28.3Q134.63-29 135.31-29.9 135.98-30.8 137.03-30.9L137.03-30.9Q138.18-30.9 140.68-31.3L140.68-31.3Q143.28-31.7 144.63-31.7L144.63-31.7Q148.73-31.7 151.01-30.9 153.28-30.1 155.58-28.25L155.58-28.25Q158.08-24.35 158.08-22.75L158.08-22.75Q158.08-19.4 156.73-16.8 155.38-14.2 152.78-12.75 150.18-11.3 146.58-11.3L146.58-11.3ZM145.43-27.45Q143.83-27.45 142.66-27.28 141.48-27.1 139.83-26.7L139.83-26.7Q140.03-22.1 140.03-20L140.03-20Q140.03-17.85 139.88-16.4L139.88-16.4Q142.03-15.95 143.28-15.83 144.53-15.7 146.08-15.7L146.08-15.7Q149.78-15.7 151.31-17.63 152.83-19.55 152.83-22.1L152.83-22.1Q152.83-22.85 152.38-23.95 151.93-25.05 151.58-25.4L151.58-25.4Q150.23-26.6 148.96-27.03 147.68-27.45 145.43-27.45L145.43-27.45ZM169.23-2Q169.23-1.15 168.58-0.5 167.93 0.15 166.98 0.15L166.98 0.15Q165.48 0.15 164.78-0.43 164.08-1 164.08-2.55L164.08-2.55Q164.08-4.4 163.98-7.4L163.98-7.4Q163.88-9.9 163.88-11.6L163.88-11.6Q163.88-12.4 163.98-13.7L163.98-13.7Q164.08-14.9 164.08-15.5L164.08-15.5Q163.93-16.45 163.33-17.07 162.73-17.7 161.78-17.7L161.78-17.7Q161.33-17.7 161.03-18.13 160.73-18.55 160.73-19L160.73-19Q160.73-20.15 161.66-20.75 162.58-21.35 163.88-21.35L163.88-21.35Q166.58-21.35 167.63-18.15L167.63-18.15Q168.93-19.65 170.61-20.58 172.28-21.5 173.83-21.5L173.83-21.5Q175.68-21.5 177.21-20.5 178.73-19.5 178.73-17.8L178.73-17.8Q178.73-16.85 177.91-15.85 177.08-14.85 176.23-14.85L176.23-14.85Q175.78-14.85 175.46-15.08 175.13-15.3 174.68-15.75L174.68-15.75Q174.18-16.25 173.83-16.48 173.48-16.7 173.03-16.7L173.03-16.7Q172.23-16.7 171.53-16.45 170.83-16.2 170.58-15.85L170.58-15.85Q169.78-14.6 169.41-13.6 169.03-12.6 169.03-11.45L169.03-11.45Q169.03-10.6 168.98-10.1L168.98-10.1 168.93-7.25Q168.93-6.6 168.98-5.8 169.03-5 169.08-4.6L169.08-4.6Q169.23-3.25 169.23-2L169.23-2ZM181.28-10.6Q181.28-12.5 181.98-14.43 182.68-16.35 183.83-17.95L183.83-17.95Q184.98-19.55 187.48-20.58 189.98-21.6 191.93-21.6L191.93-21.6Q193.93-21.6 196-21.05 198.08-20.5 198.88-19.35L198.88-19.35Q200.73-16.75 200.73-14.25L200.73-14.25Q200.73-12.9 200.15-11.95 199.58-11 198.53-9.9L198.53-9.9Q197.68-9 195.85-8.7 194.03-8.4 192.23-8.4L192.23-8.4Q191.08-8.4 189.43-8.63 187.78-8.85 186.23-9.2L186.23-9.2Q186.33-8.2 186.73-7.25 187.13-6.3 187.68-5.8L187.68-5.8Q188.68-4.85 189.75-4.6 190.83-4.35 192.53-4.35L192.53-4.35Q194.33-4.35 195.88-4.95L195.88-4.95Q197.13-5.4 197.93-5.4L197.93-5.4Q198.88-5.4 199.38-4.83 199.88-4.25 199.88-3.35L199.88-3.35Q199.88-2.1 198.43-1.3 196.98-0.5 195.1-0.13 193.23 0.25 192.08 0.25L192.08 0.25Q189.73 0.25 187.53-0.6 185.33-1.45 183.88-3L183.88-3Q182.68-4.4 181.98-6.38 181.28-8.35 181.28-10.6L181.28-10.6ZM192.18-17.35Q191.08-17.35 189.98-16.93 188.88-16.5 188.18-15.75L188.18-15.75Q187.28-14.8 186.95-14.23 186.63-13.65 186.53-12.65L186.53-12.65Q187.78-12.25 191.73-12.25L191.73-12.25Q193.88-12.25 195.05-12.9 196.23-13.55 196.23-14.6L196.23-14.6Q196.23-15.65 194.93-16.5 193.63-17.35 192.18-17.35L192.18-17.35ZM206.68-17.4Q206.23-17.4 205.83-17.32 205.43-17.25 205.03-17.25L205.03-17.25Q204.48-17.25 204-17.75 203.53-18.25 203.53-18.65L203.53-18.65Q203.53-19.95 204.83-20.68 206.13-21.4 207.48-21.4L207.48-21.4Q208.63-21.4 209.85-20.63 211.08-19.85 211.68-18.65L211.68-18.65Q212.98-20.2 214.88-20.9 216.78-21.6 218.83-21.6L218.83-21.6Q221.13-21.6 223.1-20.15 225.08-18.7 226.23-16.48 227.38-14.25 227.38-12.05L227.38-12.05Q227.38-9.9 226.93-8.22 226.48-6.55 225.33-4.85L225.33-4.85Q224.03-3.05 221.85-1.9 219.68-0.75 216.68-0.75L216.68-0.75Q215.88-0.75 214.73-1.18 213.58-1.6 212.83-2.1L212.83-2.1Q212.48 1.3 212.48 3.8L212.48 3.8Q212.48 5.3 212.63 6.65L212.63 6.65Q212.73 8.25 212.73 8.95L212.73 8.95Q212.73 10.05 211.98 10.58 211.23 11.1 210.33 11.1L210.33 11.1Q208.53 11.1 207.95 10.13 207.38 9.15 207.38 7.35L207.38 7.35Q207.58 3.05 207.88-0.6L207.88-0.6Q208.18-5.1 208.18-14.5L208.18-14.5Q208.18-15.4 207.83-16.4 207.48-17.4 206.68-17.4L206.68-17.4ZM213.03-7.05Q213.28-6.1 214.45-5.48 215.63-4.85 216.58-4.85L216.58-4.85Q219.43-4.85 220.83-6.4L220.83-6.4Q221.88-7.5 222.2-8.55 222.53-9.6 222.53-11.9L222.53-11.9Q222.53-13.7 221.83-14.93 221.13-16.15 220.13-16.73 219.13-17.3 218.23-17.3L218.23-17.3Q216.18-17.3 214.9-16.07 213.63-14.85 213.28-12.75L213.28-12.75Q213.03-11.1 213.03-7.05L213.03-7.05Z" opacity="1" transform="matrix(1,0,0,1,0,0)" fill="#ffffff" class="wordmark-text-0" data-fill-palette-color="primary" id="text-0"></path></svg></g></svg></g><g transform="matrix(1,0,0,1,0,47.27558361625583)"><svg viewBox="0 0 192 16.81364744110479" height="16.81364744110479" width="192"><g transform="matrix(1,0,0,1,0,0)"><svg width="192" viewBox="0.98 -38.43 600.99 52.64" height="16.81364744110479" data-palette-color="#ffffff"><path d="M3.76-21.09L3.76-21.09 2.78-23.58Q4.05-24.85 6.01-25.61 7.96-26.37 9.86-26.37L9.86-26.37Q18.12-26.37 18.12-12.11L18.12-12.11Q18.12-10.16 17.9-6.35 17.68-2.54 17.68-0.63L17.68-0.63Q17.29 0.88 16.16 0.88L16.16 0.88Q15.28 0.88 14.55 0 13.82-0.88 13.82-1.95L13.82-1.95Q13.82-2.29 13.87-2.44L13.87-2.44Q10.84 0.49 7.42 0.49L7.42 0.49Q4.83 0.49 2.91-1.39 0.98-3.27 0.98-5.96L0.98-5.96Q0.98-10.5 4.52-14.16 8.06-17.82 12.55-17.82L12.55-17.82Q12.74-17.82 12.94-17.8 13.13-17.77 13.4-17.72 13.67-17.68 13.82-17.68L13.82-17.68Q13.43-23.39 9.28-23.39L9.28-23.39Q6.84-23.39 3.76-21.09ZM13.96-5.81L13.96-5.81Q14.06-9.23 14.06-10.99L14.06-10.99Q14.06-12.45 13.96-15.09L13.96-15.09 13.57-15.09Q10.11-15.04 7.25-12.5 4.39-9.96 4.39-6.35L4.39-6.35Q4.39-4.79 5.35-3.86 6.3-2.93 7.67-2.93L7.67-2.93Q9.81-2.93 13.96-5.81ZM22.07-2.34L23.14-33.5 25.39-33.01 26.46-1.42Q26.02 0.1 24.75 0.1L24.75 0.1Q23.87 0.1 23.07-0.61 22.26-1.32 22.07-2.34L22.07-2.34ZM44.43 11.77L45.01-25.68 47.75-25.2Q47.75-24.17 47.8-23.68L47.8-23.68Q50.48-25.39 53.22-25.39L53.22-25.39Q57.66-25.39 60.15-21.58 62.64-17.77 62.64-12.94L62.64-12.94Q62.64-10.5 62.27-8.28 61.91-6.05 60.98-3.74 60.05-1.42 58.12-0.02 56.19 1.37 53.46 1.37L53.46 1.37Q50.87 1.37 48.48 0L48.48 0Q48.67 8.54 48.82 12.7L48.82 12.7Q48.38 14.21 47.11 14.21L47.11 14.21Q46.23 14.21 45.43 13.5 44.62 12.79 44.43 11.77L44.43 11.77ZM48.19-20.51L48.19-20.51 48.33-4.74Q48.92-3.56 50.14-2.86 51.36-2.15 52.82-2.15L52.82-2.15Q54.73-2.15 56.07-3.37 57.41-4.59 57.98-6.62 58.54-8.64 58.76-10.4 58.98-12.16 58.98-14.11L58.98-14.11Q58.98-22.41 53.36-22.41L53.36-22.41Q51.55-22.41 50.02-21.9 48.48-21.39 48.19-20.51ZM66.59-10.4L66.59-10.4Q66.59-12.35 67.01-14.75 67.42-17.14 68.25-19.78 69.08-22.41 70.74-24.17 72.4-25.93 74.6-25.93L74.6-25.93Q79.29-25.93 82.12-21.7 84.95-17.48 84.95-12.3L84.95-12.3Q84.95-10.11 84.49-7.93 84.02-5.76 83.05-3.66 82.07-1.56 80.24-0.17 78.41 1.22 75.97 1.42L75.97 1.42Q71.47 0.83 69.03-2.42 66.59-5.66 66.59-10.4ZM74.89-23.39L74.89-23.39Q73.18-23.19 72.01-20.26 70.84-17.33 70.5-14.58 70.16-11.82 70.16-9.72L70.16-9.72Q70.16-6.98 71.84-4.66 73.53-2.34 75.62-2.34L75.62-2.34Q77.14-2.34 78.36-3.52 79.58-4.69 80.29-6.42 81-8.15 81.36-9.91 81.73-11.67 81.73-13.04L81.73-13.04Q81.73-17.04 79.92-20.02 78.12-23 74.89-23.39ZM111.02-25.29L111.02-25.29 114.29-24.85Q113.37-21 111.36-13.11 109.36-5.22 108.24-0.29L108.24-0.29Q106.34 0.05 104.97 0.05L104.97 0.05Q103.75 0.05 102.72-0.15L102.72-0.15 99.99-9.72 97.64-0.1Q95.74 0.24 94.32 0.24L94.32 0.24Q93.15 0.24 92.13 0.05L92.13 0.05Q91.39-2.49 89.81-7.98 88.22-13.48 87.12-17.53 86.02-21.58 85.14-25.29L85.14-25.29 88.37-25.05 94.71-4.74Q96.33-9.42 98.08-16.31L98.08-16.31Q96.57-21.92 95.74-25.49L95.74-25.49 98.96-25.24 105.31-4.93Q106.09-7.28 106.97-10.21 107.85-13.13 108.39-15.21 108.92-17.29 109.8-20.63 110.68-23.97 111.02-25.29ZM135.92-4.74L135.92-4.74 136.41-2.59Q134.26-1.81 130.04-0.85 125.82 0.1 123.76 0.1L123.76 0.1Q121.66 0.1 120.1-1.29 118.54-2.69 117.76-4.86 116.98-7.03 116.61-9.16 116.24-11.28 116.24-13.33L116.24-13.33Q116.24-25.54 127.28-25.54L127.28-25.54Q129.92-25.54 131.92-23.85 133.92-22.17 133.92-19.48L133.92-19.48Q133.92-18.02 133.11-16.89 132.31-15.77 131.16-15.11 130.01-14.45 128.23-13.92 126.45-13.38 125.08-13.13 123.72-12.89 121.81-12.6 119.91-12.3 119.17-12.16L119.17-12.16Q119.22-10.74 119.35-9.67 119.47-8.59 119.83-7.35 120.2-6.1 120.81-5.3 121.42-4.49 122.49-3.96 123.57-3.42 125.03-3.42L125.03-3.42Q126.79-3.42 129.33-3.74 131.87-4.05 133.85-4.39 135.82-4.74 135.92-4.74ZM119.37-15.19L119.37-15.19Q126.01-17.09 130.26-19.19L130.26-19.19Q129.92-20.8 129.33-21.53 128.74-22.27 127.57-22.27L127.57-22.27Q124.59-22.27 122.18-20.21 119.76-18.16 119.37-15.19ZM154.47-18.6L154.47-18.6 152.33-18.75Q151.3-21.48 148.86-21.48L148.86-21.48Q147.79-21.48 146.59-21 145.39-20.51 144.61-20 143.83-19.48 142.56-18.51L142.56-18.51Q142.56-17.82 142.54-14.06 142.51-10.3 142.59-5.71 142.66-1.12 142.76-0.78L142.76-0.78Q142.32 0.68 141.05 0.68L141.05 0.68Q140.17 0.68 139.36-0.02 138.56-0.73 138.36-1.76L138.36-1.76Q139.29-17.43 140.02-25.44L140.02-25.44 142.22-24.95 142.37-21.68Q145.78-24.51 148.22-24.51L148.22-24.51Q150.91-24.51 152.74-23.29 154.57-22.07 154.57-19.73L154.57-19.73Q154.57-18.99 154.47-18.6ZM176.2-4.74L176.2-4.74 176.69-2.59Q174.54-1.81 170.32-0.85 166.09 0.1 164.04 0.1L164.04 0.1Q161.94 0.1 160.38-1.29 158.82-2.69 158.04-4.86 157.26-7.03 156.89-9.16 156.52-11.28 156.52-13.33L156.52-13.33Q156.52-25.54 167.56-25.54L167.56-25.54Q170.19-25.54 172.2-23.85 174.2-22.17 174.2-19.48L174.2-19.48Q174.2-18.02 173.39-16.89 172.59-15.77 171.44-15.11 170.29-14.45 168.51-13.92 166.73-13.38 165.36-13.13 163.99-12.89 162.09-12.6 160.19-12.3 159.45-12.16L159.45-12.16Q159.5-10.74 159.62-9.67 159.75-8.59 160.11-7.35 160.48-6.1 161.09-5.3 161.7-4.49 162.77-3.96 163.85-3.42 165.31-3.42L165.31-3.42Q167.07-3.42 169.61-3.74 172.15-4.05 174.13-4.39 176.1-4.74 176.2-4.74ZM159.65-15.19L159.65-15.19Q166.29-17.09 170.54-19.19L170.54-19.19Q170.19-20.8 169.61-21.53 169.02-22.27 167.85-22.27L167.85-22.27Q164.87-22.27 162.46-20.21 160.04-18.16 159.65-15.19ZM196.85-37.3L196.22 1.27 193.53 0.73Q193.53-0.24 193.48-0.73L193.48-0.73Q190.9 0.93 188.01 0.93L188.01 0.93Q183.57 0.93 181.11-2.88 178.64-6.69 178.64-11.52L178.64-11.52Q178.64-14.01 179.01-16.21 179.37-18.41 180.28-20.73 181.18-23.05 183.11-24.41 185.04-25.78 187.77-25.78L187.77-25.78Q190.46-25.78 192.8-24.46L192.8-24.46Q193.19-29.64 193.19-34.91L193.19-34.91Q193.19-37.3 193.14-38.43L193.14-38.43Q195.49-37.99 196.85-37.3L196.85-37.3ZM193.09-3.96L193.09-3.96 192.95-19.68Q192.36-20.9 191.12-21.61 189.87-22.31 188.45-22.31L188.45-22.31Q186.55-22.31 185.21-21.09 183.86-19.87 183.3-17.85 182.74-15.82 182.52-14.06 182.3-12.3 182.3-10.35L182.3-10.35Q182.3-2.05 187.87-2.05L187.87-2.05Q189.72-2.05 191.26-2.56 192.8-3.08 193.09-3.96ZM215.84-25.1L215.84-25.1 218.09-24.61Q218.48-20.61 218.77-12.04 219.06-3.47 219.16-1.42L219.16-1.42Q218.72 0.1 217.45 0.1L217.45 0.1Q216.57 0.1 215.77-0.61 214.96-1.32 214.77-2.34L214.77-2.34Q214.87-4.35 215.16-12.77 215.45-21.19 215.84-25.1ZM216.53-33.84L216.53-33.84Q217.84-33.84 218.72-32.69 219.6-31.54 219.6-30.08L219.6-30.08Q219.6-29 219.09-28.34 218.58-27.69 217.7-27.69L217.7-27.69Q216.33-27.69 215.55-28.81 214.77-29.93 214.77-31.45L214.77-31.45Q214.77-32.52 215.23-33.18 215.7-33.84 216.53-33.84ZM226.92-19.53L226.92-19.53 227.12-0.2Q226.39 0.2 225.36 0.2L225.36 0.2Q224.58 0.2 223.6-0.05L223.6-0.05Q223.75-3.13 223.8-12.16 223.85-21.19 224.19-25.54L224.19-25.54 226.39-25.05 226.53-22.31Q229.12-25.05 232.49-25.05L232.49-25.05Q234.2-25.05 235.22-24.8 236.25-24.56 237.2-23.61 238.15-22.66 238.64-21.09 239.13-19.53 239.52-16.63 239.91-13.72 240.08-9.84 240.25-5.96 240.3-0.05L240.3-0.05Q240.01 0.05 239.18 0.05L239.18 0.05Q237.42 0.05 236.44-0.39L236.44-0.39Q236.25-1.17 236.25-2.98L236.25-2.98Q236.25-3.91 236.32-6.47 236.4-9.03 236.4-10.45L236.4-10.45Q236.4-12.79 236.22-14.55 236.05-16.31 235.59-18.02 235.13-19.73 234.17-20.65 233.22-21.58 231.81-21.58L231.81-21.58Q230.19-21.58 229.29-21.34 228.39-21.09 228.02-20.75 227.66-20.41 226.92-19.53ZM257.58-23.63L257.58-23.63 258.12-21.44Q256.8-21.34 254.07-20.92 251.33-20.51 249.97-20.41L249.97-20.41Q250.21-18.7 250.26-15.92 250.31-13.13 250.38-11.11 250.46-9.08 250.82-7.06 251.19-5.03 252.34-3.96 253.48-2.88 255.44-2.88L255.44-2.88Q256.9-2.88 259.1-3.56L259.1-3.56Q260.03-1.76 260.47-0.93L260.47-0.93Q256.61 0.44 252.65 0.44L252.65 0.44Q251.19 0.44 250.11-0.44 249.04-1.32 248.45-2.64 247.87-3.96 247.5-5.98 247.14-8.01 247.04-9.81 246.94-11.62 246.94-13.96L246.94-13.96Q246.94-15.23 246.96-17.48 246.99-19.73 246.99-20.56L246.99-20.56Q246.5-20.51 244.69-20.48 242.89-20.46 242.59-20.46L242.59-20.46Q242.25-23.73 242.25-23.83L242.25-23.83Q242.59-23.73 243.38-23.73L243.38-23.73Q243.82-23.73 244.79-23.8 245.77-23.88 246.26-23.88L246.26-23.88Q246.45-23.88 246.77-23.85 247.09-23.83 247.18-23.83L247.18-23.83Q247.38-29.2 247.62-32.57L247.62-32.57 249.82-32.03Q249.87-30.86 249.89-29.52 249.92-28.17 249.94-26.54 249.97-24.9 249.97-24.02L249.97-24.02Q251.24-23.93 253.78-23.83 256.32-23.73 257.58-23.63ZM279.95-4.74L279.95-4.74 280.43-2.59Q278.29-1.81 274.06-0.85 269.84 0.1 267.79 0.1L267.79 0.1Q265.69 0.1 264.13-1.29 262.56-2.69 261.78-4.86 261-7.03 260.63-9.16 260.27-11.28 260.27-13.33L260.27-13.33Q260.27-25.54 271.3-25.54L271.3-25.54Q273.94-25.54 275.94-23.85 277.94-22.17 277.94-19.48L277.94-19.48Q277.94-18.02 277.14-16.89 276.33-15.77 275.18-15.11 274.04-14.45 272.26-13.92 270.47-13.38 269.11-13.13 267.74-12.89 265.83-12.6 263.93-12.3 263.2-12.16L263.2-12.16Q263.25-10.74 263.37-9.67 263.49-8.59 263.86-7.35 264.22-6.1 264.83-5.3 265.44-4.49 266.52-3.96 267.59-3.42 269.06-3.42L269.06-3.42Q270.81-3.42 273.35-3.74 275.89-4.05 277.87-4.39 279.85-4.74 279.95-4.74ZM263.39-15.19L263.39-15.19Q270.03-17.09 274.28-19.19L274.28-19.19Q273.94-20.8 273.35-21.53 272.77-22.27 271.6-22.27L271.6-22.27Q268.62-22.27 266.2-20.21 263.78-18.16 263.39-15.19ZM298.5-18.6L298.5-18.6 296.35-18.75Q295.32-21.48 292.88-21.48L292.88-21.48Q291.81-21.48 290.61-21 289.42-20.51 288.63-20 287.85-19.48 286.58-18.51L286.58-18.51Q286.58-17.82 286.56-14.06 286.53-10.3 286.61-5.71 286.68-1.12 286.78-0.78L286.78-0.78Q286.34 0.68 285.07 0.68L285.07 0.68Q284.19 0.68 283.39-0.02 282.58-0.73 282.38-1.76L282.38-1.76Q283.31-17.43 284.04-25.44L284.04-25.44 286.24-24.95 286.39-21.68Q289.81-24.51 292.25-24.51L292.25-24.51Q294.93-24.51 296.76-23.29 298.6-22.07 298.6-19.73L298.6-19.73Q298.6-18.99 298.5-18.6ZM313.83-25.1L313.83-25.1 317.1-24.66Q316.17-20.8 314.17-12.92 312.17-5.03 311.04-0.1L311.04-0.1Q309.14 0.24 307.72 0.24L307.72 0.24Q306.55 0.24 305.53 0.05L305.53 0.05Q304.79-2.49 303.21-7.98 301.62-13.48 300.52-17.53 299.42-21.58 298.54-25.29L298.54-25.29 301.77-25.05 308.11-4.74Q308.9-7.08 309.77-10.01 310.65-12.94 311.19-15.01 311.73-17.09 312.61-20.43 313.49-23.78 313.83-25.1ZM320.12-25.1L320.12-25.1 322.37-24.61Q322.76-20.61 323.05-12.04 323.35-3.47 323.44-1.42L323.44-1.42Q323 0.1 321.73 0.1L321.73 0.1Q320.86 0.1 320.05-0.61 319.24-1.32 319.05-2.34L319.05-2.34Q319.15-4.35 319.44-12.77 319.73-21.19 320.12-25.1ZM320.81-33.84L320.81-33.84Q322.13-33.84 323-32.69 323.88-31.54 323.88-30.08L323.88-30.08Q323.88-29 323.37-28.34 322.86-27.69 321.98-27.69L321.98-27.69Q320.61-27.69 319.83-28.81 319.05-29.93 319.05-31.45L319.05-31.45Q319.05-32.52 319.51-33.18 319.98-33.84 320.81-33.84ZM347.56-4.74L347.56-4.74 348.05-2.59Q345.9-1.81 341.68-0.85 337.46 0.1 335.4 0.1L335.4 0.1Q333.3 0.1 331.74-1.29 330.18-2.69 329.4-4.86 328.62-7.03 328.25-9.16 327.88-11.28 327.88-13.33L327.88-13.33Q327.88-25.54 338.92-25.54L338.92-25.54Q341.56-25.54 343.56-23.85 345.56-22.17 345.56-19.48L345.56-19.48Q345.56-18.02 344.75-16.89 343.95-15.77 342.8-15.11 341.65-14.45 339.87-13.92 338.09-13.38 336.72-13.13 335.36-12.89 333.45-12.6 331.55-12.3 330.81-12.16L330.81-12.16Q330.86-10.74 330.99-9.67 331.11-8.59 331.47-7.35 331.84-6.1 332.45-5.3 333.06-4.49 334.13-3.96 335.21-3.42 336.67-3.42L336.67-3.42Q338.43-3.42 340.97-3.74 343.51-4.05 345.49-4.39 347.46-4.74 347.56-4.74ZM331.01-15.19L331.01-15.19Q337.65-17.09 341.9-19.19L341.9-19.19Q341.56-20.8 340.97-21.53 340.38-22.27 339.21-22.27L339.21-22.27Q336.23-22.27 333.82-20.21 331.4-18.16 331.01-15.19ZM373.88-25.29L373.88-25.29 377.15-24.85Q376.22-21 374.22-13.11 372.22-5.22 371.1-0.29L371.1-0.29Q369.19 0.05 367.82 0.05L367.82 0.05Q366.6 0.05 365.58-0.15L365.58-0.15 362.84-9.72 360.5-0.1Q358.6 0.24 357.18 0.24L357.18 0.24Q356.01 0.24 354.98 0.05L354.98 0.05Q354.25-2.49 352.66-7.98 351.08-13.48 349.98-17.53 348.88-21.58 348-25.29L348-25.29 351.22-25.05 357.57-4.74Q359.18-9.42 360.94-16.31L360.94-16.31Q359.43-21.92 358.6-25.49L358.6-25.49 361.82-25.24 368.17-4.93Q368.95-7.28 369.83-10.21 370.7-13.13 371.24-15.21 371.78-17.29 372.66-20.63 373.54-23.97 373.88-25.29ZM393.06 11.77L393.65-25.68 396.38-25.2Q396.38-24.17 396.43-23.68L396.43-23.68Q399.12-25.39 401.85-25.39L401.85-25.39Q406.3-25.39 408.79-21.58 411.28-17.77 411.28-12.94L411.28-12.94Q411.28-10.5 410.91-8.28 410.54-6.05 409.62-3.74 408.69-1.42 406.76-0.02 404.83 1.37 402.1 1.37L402.1 1.37Q399.51 1.37 397.12 0L397.12 0Q397.31 8.54 397.46 12.7L397.46 12.7Q397.02 14.21 395.75 14.21L395.75 14.21Q394.87 14.21 394.06 13.5 393.26 12.79 393.06 11.77L393.06 11.77ZM396.82-20.51L396.82-20.51 396.97-4.74Q397.55-3.56 398.78-2.86 400-2.15 401.46-2.15L401.46-2.15Q403.37-2.15 404.71-3.37 406.05-4.59 406.61-6.62 407.17-8.64 407.39-10.4 407.61-12.16 407.61-14.11L407.61-14.11Q407.61-22.41 402-22.41L402-22.41Q400.19-22.41 398.65-21.9 397.12-21.39 396.82-20.51ZM431.34-18.6L431.34-18.6 429.19-18.75Q428.17-21.48 425.73-21.48L425.73-21.48Q424.65-21.48 423.46-21 422.26-20.51 421.48-20 420.7-19.48 419.43-18.51L419.43-18.51Q419.43-17.82 419.4-14.06 419.38-10.3 419.45-5.71 419.53-1.12 419.62-0.78L419.62-0.78Q419.18 0.68 417.91 0.68L417.91 0.68Q417.03 0.68 416.23-0.02 415.42-0.73 415.23-1.76L415.23-1.76Q416.16-17.43 416.89-25.44L416.89-25.44 419.09-24.95 419.23-21.68Q422.65-24.51 425.09-24.51L425.09-24.51Q427.78-24.51 429.61-23.29 431.44-22.07 431.44-19.73L431.44-19.73Q431.44-18.99 431.34-18.6ZM453.07-4.74L453.07-4.74 453.56-2.59Q451.41-1.81 447.18-0.85 442.96 0.1 440.91 0.1L440.91 0.1Q438.81 0.1 437.25-1.29 435.68-2.69 434.9-4.86 434.12-7.03 433.76-9.16 433.39-11.28 433.39-13.33L433.39-13.33Q433.39-25.54 444.42-25.54L444.42-25.54Q447.06-25.54 449.06-23.85 451.07-22.17 451.07-19.48L451.07-19.48Q451.07-18.02 450.26-16.89 449.45-15.77 448.31-15.11 447.16-14.45 445.38-13.92 443.59-13.38 442.23-13.13 440.86-12.89 438.96-12.6 437.05-12.3 436.32-12.16L436.32-12.16Q436.37-10.74 436.49-9.67 436.61-8.59 436.98-7.35 437.34-6.1 437.96-5.3 438.57-4.49 439.64-3.96 440.71-3.42 442.18-3.42L442.18-3.42Q443.94-3.42 446.48-3.74 449.01-4.05 450.99-4.39 452.97-4.74 453.07-4.74ZM436.51-15.19L436.51-15.19Q443.16-17.09 447.4-19.19L447.4-19.19Q447.06-20.8 446.48-21.53 445.89-22.27 444.72-22.27L444.72-22.27Q441.74-22.27 439.32-20.21 436.91-18.16 436.51-15.19ZM455.51 11.77L456.09-25.68 458.83-25.2Q458.83-24.17 458.88-23.68L458.88-23.68Q461.56-25.39 464.3-25.39L464.3-25.39Q468.74-25.39 471.23-21.58 473.72-17.77 473.72-12.94L473.72-12.94Q473.72-10.5 473.35-8.28 472.99-6.05 472.06-3.74 471.13-1.42 469.2-0.02 467.27 1.37 464.54 1.37L464.54 1.37Q461.95 1.37 459.56 0L459.56 0Q459.75 8.54 459.9 12.7L459.9 12.7Q459.46 14.21 458.19 14.21L458.19 14.21Q457.31 14.21 456.51 13.5 455.7 12.79 455.51 11.77L455.51 11.77ZM459.27-20.51L459.27-20.51 459.41-4.74Q460-3.56 461.22-2.86 462.44-2.15 463.9-2.15L463.9-2.15Q465.81-2.15 467.15-3.37 468.49-4.59 469.06-6.62 469.62-8.64 469.84-10.4 470.06-12.16 470.06-14.11L470.06-14.11Q470.06-22.41 464.44-22.41L464.44-22.41Q462.64-22.41 461.1-21.9 459.56-21.39 459.27-20.51ZM479.43-21.09L479.43-21.09 478.45-23.58Q479.72-24.85 481.68-25.61 483.63-26.37 485.53-26.37L485.53-26.37Q493.79-26.37 493.79-12.11L493.79-12.11Q493.79-10.16 493.57-6.35 493.35-2.54 493.35-0.63L493.35-0.63Q492.96 0.88 491.83 0.88L491.83 0.88Q490.95 0.88 490.22 0 489.49-0.88 489.49-1.95L489.49-1.95Q489.49-2.29 489.54-2.44L489.54-2.44Q486.51 0.49 483.09 0.49L483.09 0.49Q480.5 0.49 478.58-1.39 476.65-3.27 476.65-5.96L476.65-5.96Q476.65-10.5 480.19-14.16 483.73-17.82 488.22-17.82L488.22-17.82Q488.41-17.82 488.61-17.8 488.8-17.77 489.07-17.72 489.34-17.68 489.49-17.68L489.49-17.68Q489.1-23.39 484.95-23.39L484.95-23.39Q482.51-23.39 479.43-21.09ZM489.63-5.81L489.63-5.81Q489.73-9.23 489.73-10.99L489.73-10.99Q489.73-12.45 489.63-15.09L489.63-15.09 489.24-15.09Q485.78-15.04 482.92-12.5 480.06-9.96 480.06-6.35L480.06-6.35Q480.06-4.79 481.02-3.86 481.97-2.93 483.34-2.93L483.34-2.93Q485.48-2.93 489.63-5.81ZM513.85-18.6L513.85-18.6 511.7-18.75Q510.68-21.48 508.24-21.48L508.24-21.48Q507.16-21.48 505.97-21 504.77-20.51 503.99-20 503.21-19.48 501.94-18.51L501.94-18.51Q501.94-17.82 501.91-14.06 501.89-10.3 501.96-5.71 502.03-1.12 502.13-0.78L502.13-0.78Q501.69 0.68 500.42 0.68L500.42 0.68Q499.54 0.68 498.74-0.02 497.93-0.73 497.74-1.76L497.74-1.76Q498.67-17.43 499.4-25.44L499.4-25.44 501.6-24.95 501.74-21.68Q505.16-24.51 507.6-24.51L507.6-24.51Q510.29-24.51 512.12-23.29 513.95-22.07 513.95-19.73L513.95-19.73Q513.95-18.99 513.85-18.6ZM517.66-21.09L517.66-21.09 516.68-23.58Q517.95-24.85 519.9-25.61 521.86-26.37 523.76-26.37L523.76-26.37Q532.01-26.37 532.01-12.11L532.01-12.11Q532.01-10.16 531.79-6.35 531.57-2.54 531.57-0.63L531.57-0.63Q531.18 0.88 530.06 0.88L530.06 0.88Q529.18 0.88 528.45 0 527.72-0.88 527.72-1.95L527.72-1.95Q527.72-2.29 527.76-2.44L527.76-2.44Q524.74 0.49 521.32 0.49L521.32 0.49Q518.73 0.49 516.8-1.39 514.87-3.27 514.87-5.96L514.87-5.96Q514.87-10.5 518.41-14.16 521.95-17.82 526.45-17.82L526.45-17.82Q526.64-17.82 526.84-17.8 527.03-17.77 527.3-17.72 527.57-17.68 527.72-17.68L527.72-17.68Q527.33-23.39 523.17-23.39L523.17-23.39Q520.73-23.39 517.66-21.09ZM527.86-5.81L527.86-5.81Q527.96-9.23 527.96-10.99L527.96-10.99Q527.96-12.45 527.86-15.09L527.86-15.09 527.47-15.09Q524-15.04 521.15-12.5 518.29-9.96 518.29-6.35L518.29-6.35Q518.29-4.79 519.24-3.86 520.2-2.93 521.56-2.93L521.56-2.93Q523.71-2.93 527.86-5.81ZM549.3-23.63L549.3-23.63 549.83-21.44Q548.51-21.34 545.78-20.92 543.05-20.51 541.68-20.41L541.68-20.41Q541.92-18.7 541.97-15.92 542.02-13.13 542.09-11.11 542.17-9.08 542.53-7.06 542.9-5.03 544.05-3.96 545.19-2.88 547.15-2.88L547.15-2.88Q548.61-2.88 550.81-3.56L550.81-3.56Q551.74-1.76 552.18-0.93L552.18-0.93Q548.32 0.44 544.36 0.44L544.36 0.44Q542.9 0.44 541.82-0.44 540.75-1.32 540.16-2.64 539.58-3.96 539.21-5.98 538.85-8.01 538.75-9.81 538.65-11.62 538.65-13.96L538.65-13.96Q538.65-15.23 538.68-17.48 538.7-19.73 538.7-20.56L538.7-20.56Q538.21-20.51 536.4-20.48 534.6-20.46 534.3-20.46L534.3-20.46Q533.96-23.73 533.96-23.83L533.96-23.83Q534.3-23.73 535.09-23.73L535.09-23.73Q535.53-23.73 536.5-23.8 537.48-23.88 537.97-23.88L537.97-23.88Q538.16-23.88 538.48-23.85 538.8-23.83 538.89-23.83L538.89-23.83Q539.09-29.2 539.33-32.57L539.33-32.57 541.53-32.03Q541.58-30.86 541.6-29.52 541.63-28.17 541.65-26.54 541.68-24.9 541.68-24.02L541.68-24.02Q542.95-23.93 545.49-23.83 548.03-23.73 549.3-23.63ZM555.2-25.1L555.2-25.1 557.45-24.61Q557.84-20.61 558.13-12.04 558.42-3.47 558.52-1.42L558.52-1.42Q558.08 0.1 556.81 0.1L556.81 0.1Q555.93 0.1 555.13-0.61 554.32-1.32 554.13-2.34L554.13-2.34Q554.22-4.35 554.52-12.77 554.81-21.19 555.2-25.1ZM555.88-33.84L555.88-33.84Q557.2-33.84 558.08-32.69 558.96-31.54 558.96-30.08L558.96-30.08Q558.96-29 558.45-28.34 557.94-27.69 557.06-27.69L557.06-27.69Q555.69-27.69 554.91-28.81 554.13-29.93 554.13-31.45L554.13-31.45Q554.13-32.52 554.59-33.18 555.05-33.84 555.88-33.84ZM562.96-10.4L562.96-10.4Q562.96-12.35 563.38-14.75 563.79-17.14 564.62-19.78 565.45-22.41 567.11-24.17 568.77-25.93 570.97-25.93L570.97-25.93Q575.66-25.93 578.49-21.7 581.32-17.48 581.32-12.3L581.32-12.3Q581.32-10.11 580.86-7.93 580.39-5.76 579.42-3.66 578.44-1.56 576.61-0.17 574.78 1.22 572.34 1.42L572.34 1.42Q567.84 0.83 565.4-2.42 562.96-5.66 562.96-10.4ZM571.26-23.39L571.26-23.39Q569.55-23.19 568.38-20.26 567.21-17.33 566.87-14.58 566.53-11.82 566.53-9.72L566.53-9.72Q566.53-6.98 568.21-4.66 569.9-2.34 572-2.34L572-2.34Q573.51-2.34 574.73-3.52 575.95-4.69 576.66-6.42 577.37-8.15 577.73-9.91 578.1-11.67 578.1-13.04L578.1-13.04Q578.1-17.04 576.29-20.02 574.49-23 571.26-23.39ZM588.59-19.53L588.59-19.53 588.79-0.2Q588.06 0.2 587.03 0.2L587.03 0.2Q586.25 0.2 585.27-0.05L585.27-0.05Q585.42-3.13 585.47-12.16 585.52-21.19 585.86-25.54L585.86-25.54 588.06-25.05 588.2-22.31Q590.79-25.05 594.16-25.05L594.16-25.05Q595.87-25.05 596.9-24.8 597.92-24.56 598.87-23.61 599.82-22.66 600.31-21.09 600.8-19.53 601.19-16.63 601.58-13.72 601.75-9.84 601.92-5.96 601.97-0.05L601.97-0.05Q601.68 0.05 600.85 0.05L600.85 0.05Q599.09 0.05 598.12-0.39L598.12-0.39Q597.92-1.17 597.92-2.98L597.92-2.98Q597.92-3.91 597.99-6.47 598.07-9.03 598.07-10.45L598.07-10.45Q598.07-12.79 597.9-14.55 597.73-16.31 597.26-18.02 596.8-19.73 595.85-20.65 594.89-21.58 593.48-21.58L593.48-21.58Q591.87-21.58 590.96-21.34 590.06-21.09 589.69-20.75 589.33-20.41 588.59-19.53Z" opacity="1" transform="matrix(1,0,0,1,0,0)" fill="#ffffff" class="slogan-text-1" data-fill-palette-color="secondary" id="text-1"></path></svg></g></svg></g></svg></g></svg></g></svg></g></svg></g></svg></g></svg></g><defs></defs></svg><rect width="320" height="360" fill="none" stroke="none" visibility="hidden"></rect></g></svg></g></svg>